<?xml version="1.0" encoding="utf-8"?>
<!-- Generator: Adobe Illustrator 26.4.1, SVG Export Plug-In . SVG Version: 6.00 Build 0)  -->
<svg version="1.1" id="Слой_1" xmlns="http://www.w3.org/2000/svg" xmlns:xlink="http://www.w3.org/1999/xlink" x="0px" y="0px"
	 viewBox="0 0 65.7 65.8" style="enable-background:new 0 0 65.7 65.8;" xml:space="preserve">
<style type="text/css">
	.st0{fill-rule:evenodd;clip-rule:evenodd;fill:#FFFFFF;}
	.st1{fill-rule:evenodd;clip-rule:evenodd;fill:url(#SVGID_1_);}
</style>
<circle class="st0" cx="32.8" cy="32.9" r="32.4"/>
<linearGradient id="SVGID_1_" gradientUnits="userSpaceOnUse" x1="32.85" y1="9.0348" x2="32.85" y2="63.6492">
	<stop  offset="0" style="stop-color:#00B2FF"/>
	<stop  offset="1" style="stop-color:#006AFF"/>
</linearGradient>
<path class="st1" d="M32.8,6.8c-14.4,0-26,11.7-26,26.1c0,12.7,8.9,23.3,21,25.6V38.6h-4.3v-7.1h4.3v-4.3c0-5.8,2.4-9.2,9.2-9.2h5.7
	v7.2h-3.6c-2.6,0-2.8,1-2.8,2.8v3.5h6.4l-0.8,7.1h-5.7v20.2c12.9-1.7,22.7-12.6,22.7-25.9C58.9,18.5,47.2,6.8,32.8,6.8z"/>
</svg>
