<?xml version="1.0" encoding="utf-8"?>
<!-- Generator: Adobe Illustrator 26.4.1, SVG Export Plug-In . SVG Version: 6.00 Build 0)  -->
<svg version="1.1" id="图层_1" xmlns="http://www.w3.org/2000/svg" xmlns:xlink="http://www.w3.org/1999/xlink" x="0px" y="0px"
	 viewBox="0 0 747.94 716.45" style="enable-background:new 0 0 747.94 716.45;" xml:space="preserve">
<path d="M541.47,652.23c-16,40-36,45-55,45s-36-10-53-45s-59-29-66,1c-14.22,60.95-52,63-66,57s-34.04-12.84-39-49
	c-7-51,57-93,76-114s8-55-26-50s-33,63-76,59s-37-97,26-126c86.24-39.7,77-88,46-88c-52.01,0-52,49-88,39
	c-43.48-12.08-30-100,35-124c114.53-42.29-23-144-101,20c-83.43,175.41,50.5,351.5,50.5,351.5c-71-17-191.11-88.26-200-255
	c-12-225,195-297,195-297s-1.5-54.5,60.5-56.5s34,49,69,70s59,0,66-22s15-71,71-63s49,102,4,138s-78,78-49,108s66-37,71-45
	s36-34,57,3s-26,110-83,135s-49,63-19,72s43-38,77-41s50,52,11,87s-108,47-75,86s102-29,113-40c11-11,117-154-8-405
	c0,0,232,51,166,339C731.47,442.23,706.47,578.23,541.47,652.23z"/>
</svg>
