<?xml version="1.0" encoding="utf-8"?>
<!-- Generator: Adobe Illustrator 26.4.1, SVG Export Plug-In . SVG Version: 6.00 Build 0)  -->
<svg version="1.1" id="Слой_1" xmlns="http://www.w3.org/2000/svg" xmlns:xlink="http://www.w3.org/1999/xlink" x="0px" y="0px"
	 viewBox="0 0 65.7 65.8" style="enable-background:new 0 0 65.7 65.8;" xml:space="preserve">
<style type="text/css">
	.st0{fill:#FFFFFF;}
	.st1{clip-path:url(#SVGID_00000157302760817333911630000002373572217420134541_);fill:#FBBC05;}
	.st2{clip-path:url(#SVGID_00000035527019931304095240000001207413101156762769_);fill:#EA4335;}
	.st3{clip-path:url(#SVGID_00000116219640227072554840000002782615489189221262_);fill:#34A853;}
	.st4{clip-path:url(#SVGID_00000036239399627325113950000017649878899786021761_);fill:#4285F4;}
</style>
<circle class="st0" cx="32.8" cy="32.9" r="32.4"/>
<circle class="st0" cx="32.8" cy="32.9" r="32.4"/>
<g>
	<g>
		<g>
			<defs>
				<path id="SVGID_1_" d="M58.6,28.2H33.5v10.4H48C46.7,45.2,41,49,33.5,49c-8.8,0-15.9-7.1-15.9-15.9s7.1-15.9,15.9-15.9
					c3.8,0,7.2,1.3,9.9,3.6l7.8-7.8c-4.8-4.2-10.9-6.7-17.8-6.7c-14.9,0-27,12-27,27s12,27,27,27c13.5,0,25.7-9.8,25.7-27
					C59.2,31.5,58.9,29.8,58.6,28.2z"/>
			</defs>
			<clipPath id="SVGID_00000015354032598934585130000001319120151166266295_">
				<use xlink:href="#SVGID_1_"  style="overflow:visible;"/>
			</clipPath>
			<path style="clip-path:url(#SVGID_00000015354032598934585130000001319120151166266295_);fill:#FBBC05;" d="M4.1,49V17.2
				l20.8,15.9L4.1,49z"/>
		</g>
	</g>
	<g>
		<g>
			<defs>
				<path id="SVGID_00000173155916898921265730000001801206365087777211_" d="M58.6,28.2H33.5v10.4H48C46.7,45.2,41,49,33.5,49
					c-8.8,0-15.9-7.1-15.9-15.9s7.1-15.9,15.9-15.9c3.8,0,7.2,1.3,9.9,3.6l7.8-7.8c-4.8-4.2-10.9-6.7-17.8-6.7c-14.9,0-27,12-27,27
					s12,27,27,27c13.5,0,25.7-9.8,25.7-27C59.2,31.5,58.9,29.8,58.6,28.2z"/>
			</defs>
			<clipPath id="SVGID_00000167356488011554613050000012892190988111621557_">
				<use xlink:href="#SVGID_00000173155916898921265730000001801206365087777211_"  style="overflow:visible;"/>
			</clipPath>
			<path style="clip-path:url(#SVGID_00000167356488011554613050000012892190988111621557_);fill:#EA4335;" d="M4.1,17.2l20.8,15.9
				l8.6-7.5l29.4-4.8V3.7H4.1V17.2z"/>
		</g>
	</g>
	<g>
		<g>
			<g>
				<defs>
					<path id="SVGID_00000066480787732048731680000015844601085753389459_" d="M58.6,28.2H33.5v10.4H48C46.7,45.2,41,49,33.5,49
						c-8.8,0-15.9-7.1-15.9-15.9s7.1-15.9,15.9-15.9c3.8,0,7.2,1.3,9.9,3.6l7.8-7.8c-4.8-4.2-10.9-6.7-17.8-6.7c-14.9,0-27,12-27,27
						s12,27,27,27c13.5,0,25.7-9.8,25.7-27C59.2,31.5,58.9,29.8,58.6,28.2z"/>
				</defs>
				<clipPath id="SVGID_00000181053280214373506490000014031289681375124657_">
					<use xlink:href="#SVGID_00000066480787732048731680000015844601085753389459_"  style="overflow:visible;"/>
				</clipPath>
				<path style="clip-path:url(#SVGID_00000181053280214373506490000014031289681375124657_);fill:#34A853;" d="M4.1,49l36.8-28.2
					l9.7,1.2L62.9,3.7v58.8H4.1V49z"/>
			</g>
		</g>
	</g>
	<g>
		<g>
			<g>
				<defs>
					<path id="SVGID_00000164511148290915164470000014854041290154090424_" d="M58.6,28.2H33.5v10.4H48C46.7,45.2,41,49,33.5,49
						c-8.8,0-15.9-7.1-15.9-15.9s7.1-15.9,15.9-15.9c3.8,0,7.2,1.3,9.9,3.6l7.8-7.8c-4.8-4.2-10.9-6.7-17.8-6.7c-14.9,0-27,12-27,27
						s12,27,27,27c13.5,0,25.7-9.8,25.7-27C59.2,31.5,58.9,29.8,58.6,28.2z"/>
				</defs>
				<clipPath id="SVGID_00000004521261894759911580000005195839804763363201_">
					<use xlink:href="#SVGID_00000164511148290915164470000014854041290154090424_"  style="overflow:visible;"/>
				</clipPath>
				<path style="clip-path:url(#SVGID_00000004521261894759911580000005195839804763363201_);fill:#4285F4;" d="M62.9,62.5l-38-29.4
					L20,29.4l42.9-12.3V62.5z"/>
			</g>
		</g>
	</g>
</g>
</svg>
