<?xml version="1.0" encoding="utf-8"?>
<!-- Generator: Adobe Illustrator 26.4.1, SVG Export Plug-In . SVG Version: 6.00 Build 0)  -->
<svg version="1.1" id="图层_1" xmlns="http://www.w3.org/2000/svg" xmlns:xlink="http://www.w3.org/1999/xlink" x="0px" y="0px"
	 viewBox="0 0 85 85" style="enable-background:new 0 0 85 85;" xml:space="preserve">
<style type="text/css">
	.st0{fill:#399D5F;}
	.st1{fill:#FFFFFF;}
</style>
<rect y="0" class="st0" width="85" height="85"/>
<g>
	<path class="st1" d="M32.8,68.5c0.2-0.2,0.2-0.4,0.3-0.6s0.4-1.5,0.4-7v-3.3c-4.2-2.7-6.8-7-6.8-11.5c0-4.6,2.6-8.9,6.8-11.6v-5.7
		c0-3.9-0.2-4.7-0.2-4.8c0-0.1-0.1-0.2-0.1-0.2c-0.3,0-0.5,0-0.9,0h-0.1c-10.4,4-17.2,12.8-17.2,22.4c0,4.9,1.7,9.7,4.9,13.7
		c3.1,4,7.5,7,12.5,8.8C32.7,68.5,32.8,68.5,32.8,68.5z"/>
	<path class="st1" d="M56.1,55.7c-0.9,0.8-1.7,1.5-2.8,2.1V61c0,5.3,0.3,6.6,0.4,7c0.1,0.2,0.2,0.4,0.4,0.8h0.1
		c7-2.5,12.5-7.2,15.5-13H56.1z"/>
	<path class="st1" d="M53.3,34.3c1.1,0.6,1.9,1.3,2.8,2.1h13.8c-3.2-6.2-9.1-11-16.6-13.3V34.3z"/>
	<path class="st1" d="M58.8,73.4c-2.7,0-4.6-0.4-5.9-1.2s-2.1-1.9-2.6-3.2c-0.3-1.2-0.6-3.9-0.6-8V9.8H49l-19.7,9.1v0.8
		c0.8-0.2,1.6-0.2,2.3-0.2c1.2,0,2.3,0.3,3.2,1c1,0.6,1.6,1.4,1.9,2.4c0.2,0.5,0.5,1.7,0.5,6V61c0,4.3-0.2,7-0.8,8.3
		c-0.5,1.3-1.5,2.4-2.9,3.1c-1.3,0.8-3.5,1.1-6.4,1.1h-0.9v0.9h33.1v-0.9H58.8L58.8,73.4z"/>
</g>
</svg>
