<?xml version="1.0" encoding="utf-8"?>
<!-- Generator: Adobe Illustrator 26.4.1, SVG Export Plug-In . SVG Version: 6.00 Build 0)  -->
<svg version="1.1" id="图层_1" xmlns="http://www.w3.org/2000/svg" xmlns:xlink="http://www.w3.org/1999/xlink" x="0px" y="0px"
 	 viewBox="0 0 372 127.89" style="enable-background:new 0 0 372 127.89;" xml:space="preserve">
<style type="text/css">
	.st0{fill:#040000;}
</style>
<g>
	<path class="st0" d="M177.92,3.89c-34.27,0-62.4,26.69-62.4,59.45c0,32.58,28.12,59.27,62.4,59.27l0,0
		c34.28,0,62.57-26.69,62.57-59.27C240.49,30.58,212.2,3.89,177.92,3.89z M177.92,95.92c-18.96,0-34.27-14.72-34.27-32.58
		c0-18.04,15.31-32.76,34.27-32.76c18.97,0,34.44,14.72,34.44,32.76C212.37,81.2,196.89,95.92,177.92,95.92z"/>
	<polygon class="st0" points="4.19,121.86 45.63,121.86 45.63,117.62 41.13,115.6 40.97,87.99 59.1,70.14 86.06,116.15 82.4,117.62 
		82.4,121.85 128.49,121.85 128.49,117.62 123.5,115.6 83.23,48.79 124.16,9.76 128.49,8.12 128.49,4.98 76.24,4.98 76.24,8.29 
		79.9,10.14 40.97,49.71 40.97,9.76 45.96,8.29 45.96,4.98 5.03,4.8 5.03,8.29 9.19,11.25 9.02,116.15 4.19,117.62 4.19,121.86 	"/>
	<path class="st0" d="M420.52,3.89c-34.27,0-62.4,26.69-62.4,59.45c0,32.58,28.12,59.27,62.4,59.27l0,0
		c34.28,0,62.57-26.69,62.57-59.27C483.08,30.58,454.79,3.89,420.52,3.89z M420.52,95.92c-18.96,0-34.27-14.72-34.27-32.58
		c0-18.04,15.31-32.76,34.27-32.76c18.97,0,34.44,14.72,34.44,32.76C454.96,81.2,439.49,95.92,420.52,95.92z"/>
	<polygon class="st0" points="246.79,121.86 288.22,121.86 288.22,117.62 283.73,115.6 283.56,87.99 301.7,70.14 328.65,116.15 
		324.99,117.62 324.99,121.85 371.09,121.85 371.09,117.62 366.09,115.6 325.83,48.79 366.76,9.76 371.09,8.12 371.09,4.98 
		318.84,4.98 318.84,8.29 322.5,10.14 283.56,49.71 283.56,9.76 288.55,8.29 288.55,4.98 247.62,4.8 247.62,8.29 251.78,11.25 
		251.62,116.15 246.79,117.62 246.79,121.86 	"/>
</g>
<!-- Text/wordmark removed — icon-only SVG -->
</svg>
